<?xml version="1.0" encoding="iso-8859-1"?>
<!-- Uploaded to: SVG Repo, www.svgrepo.com, Generator: SVG Repo Mixer Tools -->
<svg height="800px" width="800px" version="1.1" id="Layer_1" xmlns="http://www.w3.org/2000/svg" xmlns:xlink="http://www.w3.org/1999/xlink" 
	 viewBox="0 0 512 512" xml:space="preserve">
<path style="fill:#6A4213;" d="M272.708,141.815h-33.416c0-43.663-21.947-97.234-28.674-112.613l30.614-13.39
	c4.038,9.232,11.836,28.136,18.689,51.009C268.406,95.141,272.708,120.372,272.708,141.815z"/>
<path style="fill:#E7C64B;" d="M362.762,106.78c-39.095,39.095-106.651,34.925-106.651,34.925s-4.17-67.556,34.925-106.651
	S397.686,0.129,397.686,0.129S401.857,67.685,362.762,106.78z"/>
<path style="fill:#DE9846;" d="M362.762,106.78c-39.095,39.095-106.651,34.925-106.651,34.925L397.686,0.129
	C397.686,0.129,401.857,67.685,362.762,106.78z"/>
<path style="fill:#C0369E;" d="M256,497.483c20.577,0,19.947,14.517,72.171,14.517c194.712,0,246.035-458.067,10.657-406.455
	c-37.461,8.215-68.317,36.27-82.828,36.27s-45.367-28.057-82.828-36.27C-62.207,53.931-10.884,512,183.829,512
	C236.053,512,235.423,497.483,256,497.483z"/>
<path style="fill:#8B2975;" d="M256,497.483c20.577,0,19.947,14.517,72.171,14.517c194.712,0,246.035-458.067,10.657-406.455
	c-37.461,8.215-68.317,36.27-82.828,36.27C256,175.814,256,476.126,256,497.483z"/>
</svg>